<?xml version="1.0" encoding="UTF-8" standalone="no" ?>
<!DOCTYPE svg PUBLIC "-//W3C//DTD SVG 1.1//EN" "http://www.w3.org/Graphics/SVG/1.1/DTD/svg11.dtd">
<svg xmlns="http://www.w3.org/2000/svg" xmlns:xlink="http://www.w3.org/1999/xlink" version="1.1" width="1080" height="1080" viewBox="0 0 1080 1080" xml:space="preserve">
<desc>Created with Fabric.js 5.2.4</desc>
<defs>
</defs>
<rect x="0" y="0" width="100%" height="100%" fill="transparent"></rect>
<g transform="matrix(1 0 0 1 540 540)" id="5f3443f8-bc17-4253-85dd-02ed26ed6925"  >
<rect style="stroke: none; stroke-width: 1; stroke-dasharray: none; stroke-linecap: butt; stroke-dashoffset: 0; stroke-linejoin: miter; stroke-miterlimit: 4; fill: rgb(248,252,255); fill-rule: nonzero; opacity: 1;" vector-effect="non-scaling-stroke"  x="-540" y="-540" rx="0" ry="0" width="1080" height="1080" />
</g>
<g transform="matrix(0 0 0 0 0 0)" id="a2de4096-7c95-4f46-b770-1260c39e0a84"  >
</g>
<g transform="matrix(16.65 0 0 16.65 540 740.41)"  >
<path style="stroke: none; stroke-width: 0; stroke-dasharray: none; stroke-linecap: butt; stroke-dashoffset: 0; stroke-linejoin: miter; stroke-miterlimit: 4; fill: rgb(0,0,0); fill-rule: nonzero; opacity: 1;" vector-effect="non-scaling-stroke"  transform=" translate(-33, -33)" d="M 64.9889 13.9032 C 65.2223 14.1008 57.1669 21.8844 46.7196 31.046999999999997 C 36.601 39.9235 33.0035 51.1654 33.0001 52.0433 C 32.996700000000004 51.165400000000005 29.399000000000004 39.9234 19.280600000000003 31.047 C 8.8331 21.8844 0.778 14.1008 1.0111 13.9032 C 0.8829000000000001 14.0101 1.8539 17.4921 4.4286 22.115000000000002 C 2.5304 20.511200000000002 1.4616000000000002 19.529200000000003 1.5368000000000004 19.4557 C 1.4272000000000005 19.5609 2.5297000000000005 22.66 5.1603 26.6934 C 3.3353 25.3581 2.3026000000000004 24.5343 2.3664000000000005 24.4631 C 2.1950000000000003 24.6523 6.4096 33.835 16.033900000000003 40.1438 C 25.604200000000002 46.4199 33.07170000000001 51.8418 32.9863 52.0886 C 32.9858 52.0896 32.9902 52.0949 32.9892 52.0957 L 32.989399999999996 52.0947 L 32.990399999999994 52.0962 L 32.990399999999994 52.0955 L 32.991099999999996 52.097 L 32.99059999999999 52.0933 C 32.99209999999999 52.0913 32.991299999999995 52.0843 32.99229999999999 52.0811 C 32.995999999999995 52.0721 33.000099999999996 52.064 33.000099999999996 52.0439 C 33.000099999999996 52.064 33.004 52.0721 33.0079 52.0811 C 33.0086 52.0843 33.0079 52.0914 33.0094 52.0933 L 33.0089 52.097 L 33.009899999999995 52.0955 L 33.009899999999995 52.0965 L 33.0106 52.0948 L 33.010799999999996 52.0957 C 33.010799999999996 52.0957 33.0145 52.0897 33.01369999999999 52.0887 C 32.92849999999999 51.8419 40.395799999999994 46.42 49.96629999999999 40.1439 C 59.59029999999999 33.8352 63.80519999999999 24.6524 63.633799999999994 24.4632 C 63.69749999999999 24.5345 62.66479999999999 25.3582 60.83989999999999 26.6935 C 63.470499999999994 22.6602 64.5731 19.5611 64.4634 19.4558 C 64.53859999999999 19.5293 63.469699999999996 20.5113 61.57159999999999 22.115099999999998 C 64.1461 17.4921 65.1171 14.0101 64.9889 13.9032 z" stroke-linecap="round" />
</g>
<g transform="matrix(0 0 0 0 0 0)"  >
<g style=""   >
</g>
</g>
<g transform="matrix(0 0 0 0 0 0)"  >
<g style=""   >
</g>
</g>
<g transform="matrix(0 0 0 0 0 0)"  >
<g style=""   >
</g>
</g>
</svg>