<?xml version="1.0" encoding="UTF-8"?>
<svg width="700pt" height="700pt" version="1.1" viewBox="0 0 700 700" xmlns="http://www.w3.org/2000/svg">
 <path d="m689.28 147.46c2.4766 2.0977-82.961 84.648-193.77 181.83-107.32 94.145-145.47 213.38-145.51 222.69-0.035156-9.3125-38.195-128.54-145.51-222.69-110.8-97.18-196.24-179.73-193.77-181.83-1.3594 1.1328 8.9375 38.062 36.246 87.094-20.133-17.012-31.469-27.426-30.672-28.203-1.1641 1.1172 10.531 33.984 38.43 76.762-19.355-14.164-30.309-22.898-29.633-23.656-1.8164 2.0078 42.883 99.398 144.96 166.31 101.5 66.566 180.7 124.07 179.8 126.69-0.003906 0.011719 0.042969 0.066406 0.03125 0.074219l0.003906-0.011719 0.011719 0.015625v-0.007813l0.007813 0.015625-0.003906-0.039062c0.015624-0.019532 0.007812-0.09375 0.019531-0.12891 0.039062-0.09375 0.082031-0.17969 0.082031-0.39453 0 0.21484 0.042969 0.30078 0.082031 0.39453 0.007813 0.035156 0 0.10937 0.015625 0.12891l-0.003906 0.039062 0.011719-0.015625v0.011719l0.007812-0.019531 0.003907 0.007812s0.039062-0.0625 0.03125-0.074219c-0.90234-2.6172 78.297-60.121 179.8-126.69 102.07-66.91 146.78-164.3 144.96-166.31 0.67578 0.75781-10.277 9.4922-29.633 23.656 27.898-42.777 39.594-75.648 38.43-76.762 0.79688 0.78125-10.539 11.195-30.672 28.203 27.305-49.023 37.605-85.953 36.246-87.09z"/>
</svg>
